<svg data-v-0dd9719b="" version="1.0" xmlns="http://www.w3.org/2000/svg" xmlns:xlink="http://www.w3.org/1999/xlink" width="680" height="500" viewBox="0 0 340.000000 250.000000" preserveAspectRatio="xMidYMid meet" color-interpolation-filters="sRGB" style="">   <g data-v-0dd9719b="" class="iconmbgsvg" transform="translate(79.62999719381332,61.39755630493164)"><g fill="#333" hollow-target="textRect"><g transform="translate(15.370002746582031,0)" mask="url(#f12312b4-73a6-4acb-afe3-8650dadbe00c)"><g><rect fill="#333" fill-opacity="0" stroke-width="2" x="0" y="0" width="150" height="127.20488466757124" class="image-rect"></rect> <svg x="0" y="0" width="150" height="127.20488466757124" filtersec="colorsb2001610284" class="image-svg-svg primary" style="overflow: visible;"><svg xmlns="http://www.w3.org/2000/svg" viewBox="0 -0.0010010600090026855 50.06999969482422 42.46099853515625"><path d="M6.67 10.31l.15.12a30.12 30.12 0 0 0 5.62 3.35v.21c-.14 4.78 0 9.56-.06 14.34 4 2.53 8.2 4.75 12.27 7.17l.37.36c.09 2.12-.22 4.27.23 6.37v.23C16.85 40.15 8.42 37.92 0 35.68c2-8.51 4.49-16.9 6.67-25.37z" fill="#175bec"></path><path d="M37.71 13.71C41.9 11.49 46 9 50.07 6.66c-2.07 8.08-4.31 16.12-6.43 24.19-.11 1.19-1.36 1.48-2.21 2C36 36 30.63 39.14 25.21 42.23c-.45-2.1-.14-4.25-.23-6.37l.21-.25c3.86-2.16 7.66-4.42 11.51-6.59.39-.3 1.09-.52 1-1.15.04-4.72-.06-9.44.01-14.16z" fill="#198efb"></path><path d="M23.83.57c.52-.24 1.06-.76 1.69-.5q12.29 3.27 24.55 6.59C46 9 41.9 11.49 37.71 13.71l-.17.1C33.41 11.33 29.2 9 25 6.55c-4.23 2.34-8.38 4.83-12.59 7.23a30.12 30.12 0 0 1-5.62-3.35C12.47 7.11 18.18 3.89 23.83.57z" fill="#198efb"></path><path d="M12.44 13.78c4.21-2.4 8.36-4.89 12.56-7.23 4.2 2.45 8.41 4.78 12.54 7.26-4 2.63-8.34 4.75-12.32 7.42-.12 4.79 0 9.59 0 14.38l-.21.25-.37-.36c.17-4.77.27-9.56 0-14.33-2.56-2-5.59-3.33-8.35-5A38.77 38.77 0 0 0 12.4 14z" fill="#87ebff"></path><path d="M37.54 13.81l.17-.1c-.07 4.72 0 9.44 0 14.16.11.63-.59.85-1 1.15-3.85 2.17-7.65 4.43-11.51 6.59 0-4.79-.09-9.59 0-14.38 4-2.67 8.33-4.79 12.34-7.42z" fill="#87ebff"></path></svg></svg> <!----></g></g> <g transform="translate(0,44.987443923950195)"><g data-gra="path-name" fill-rule="" class="tp-name"><g transform="scale(1)"><g><path d="M20.67-36.37L32.35-35.6 23.06-0.25 10.46 0.46-0.97-35.25 11.07-36.37 15.95-15.54 20.67-36.37ZM52.67-36.37L62.57-2.18 49.98-0.56 48.45-6.3 42.66-6.3 41.39-0.56 28.44-1.83 38.55-35.65 52.67-36.37ZM43.73-14.07L47.54-14.07 45.61-22.91 43.73-14.07ZM79.13-35.25L91.32-34.38 79.38-14.88 79.74-0.51 66.69-0.51 66.99-14.78 57.7-33.62 70.65-35.25 74.71-24.28 79.13-35.25ZM92.13-36.62L115.55-36.62Q115.4-34.23 115.27-31.9 115.14-29.56 114.94-27.17L114.94-27.17 104.17-26.61 104.17-23.41 113.52-23.41 113.01-15.54 104.12-15.29 104.17-0.25 91.32 0 92.13-36.62ZM147.72-19.45L147.72-19.45Q147.72-17.14 147.19-15 146.66-12.85 145.65-10.97 144.65-9.09 143.22-7.53 141.78-5.97 139.99-4.85 138.2-3.73 136.09-3.11 133.98-2.49 131.62-2.49L131.62-2.49Q129.34-2.49 127.27-3.07 125.2-3.66 123.39-4.71 121.59-5.76 120.13-7.25 118.67-8.74 117.64-10.55 116.61-12.37 116.04-14.45 115.47-16.53 115.47-18.79L115.47-18.79Q115.47-21 116-23.12 116.54-25.24 117.54-27.12 118.54-29 119.97-30.58 121.39-32.15 123.15-33.29 124.92-34.44 126.98-35.07 129.03-35.71 131.32-35.71L131.32-35.71Q135-35.71 138.03-34.56 141.07-33.42 143.22-31.3 145.36-29.18 146.54-26.17 147.72-23.16 147.72-19.45ZM136.45-18.79L136.45-18.79Q136.45-19.88 136.13-20.91 135.81-21.94 135.2-22.74 134.59-23.54 133.69-24.04 132.79-24.53 131.62-24.53L131.62-24.53Q130.43-24.53 129.49-24.1 128.55-23.67 127.88-22.92 127.2-22.17 126.85-21.17 126.49-20.16 126.49-19.05L126.49-19.05Q126.49-17.98 126.8-16.91 127.1-15.85 127.71-14.98 128.32-14.12 129.22-13.59 130.12-13.05 131.32-13.05L131.32-13.05Q132.51-13.05 133.46-13.52 134.42-13.99 135.08-14.79 135.74-15.59 136.09-16.63 136.45-17.67 136.45-18.79ZM179.77-35.76L179.77-35.76Q178.63-26.82 177.82-17.97 177-9.12 176.27-0.15L176.27-0.15 165.85 0.61 166.31-3.3Q165.8-2.72 165.13-2.29 164.46-1.85 163.7-1.59 162.93-1.32 162.12-1.21 161.31-1.09 160.57-1.12L160.57-1.12Q158.85-1.14 157.32-1.79 155.8-2.44 154.53-3.52 153.26-4.6 152.24-6.03 151.23-7.47 150.53-9.05 149.83-10.64 149.46-12.29 149.09-13.94 149.09-15.49L149.09-15.49Q149.09-17.78 149.18-20.23 149.27-22.68 149.5-25.14 149.73-27.6 150.1-30.02 150.47-32.43 151.02-34.64L151.02-34.64Q154.12-34.49 157.25-34.36 160.37-34.23 163.47-34.28L163.47-34.28Q162.88-32.07 162.31-29.85 161.74-27.63 161.28-25.38 160.83-23.13 160.55-20.87 160.27-18.61 160.27-16.3L160.27-16.3Q160.27-15.77 160.32-14.78 160.37-13.79 160.59-12.82 160.8-11.86 161.25-11.14 161.69-10.41 162.5-10.41L162.5-10.41Q163.47-10.41 164.23-11.24 164.99-12.06 165.58-13.46 166.16-14.86 166.58-16.68 167-18.51 167.29-20.51 167.58-22.5 167.76-24.53 167.94-26.56 168.03-28.35 168.12-30.14 168.15-31.57 168.19-32.99 168.19-33.78L168.19-33.78Q168.19-34.28 168.17-34.77 168.14-35.25 168.09-35.76L168.09-35.76Q169.74-35.71 171.37-35.68 172.99-35.65 174.64-35.65L174.64-35.65Q175.91-35.65 177.19-35.67 178.48-35.68 179.77-35.76Z" transform="translate(0.9700000286102295, 36.619998931884766)"></path></g> <!----> <!----> <!----> <!----> <!----> <!----> <!----></g></g> <!----></g></g></g><mask id="f12312b4-73a6-4acb-afe3-8650dadbe00c"><g fill="white"><g><rect fill-opacity="1" stroke-width="2" x="0" y="0" width="150" height="127.20488466757124" class="image-rect"></rect> <svg x="0" y="0" width="150" height="127.20488466757124" filtersec="colorsb2001610284" class="image-svg-svg primary" style="overflow: visible;"><svg xmlns="http://www.w3.org/2000/svg" viewBox="0 -0.0010010600090026855 50.06999969482422 42.46099853515625"><path d="M6.67 10.31l.15.12a30.12 30.12 0 0 0 5.62 3.35v.21c-.14 4.78 0 9.56-.06 14.34 4 2.53 8.2 4.75 12.27 7.17l.37.36c.09 2.12-.22 4.27.23 6.37v.23C16.85 40.15 8.42 37.92 0 35.68c2-8.51 4.49-16.9 6.67-25.37z"></path><path d="M37.71 13.71C41.9 11.49 46 9 50.07 6.66c-2.07 8.08-4.31 16.12-6.43 24.19-.11 1.19-1.36 1.48-2.21 2C36 36 30.63 39.14 25.21 42.23c-.45-2.1-.14-4.25-.23-6.37l.21-.25c3.86-2.16 7.66-4.42 11.51-6.59.39-.3 1.09-.52 1-1.15.04-4.72-.06-9.44.01-14.16z"></path><path d="M23.83.57c.52-.24 1.06-.76 1.69-.5q12.29 3.27 24.55 6.59C46 9 41.9 11.49 37.71 13.71l-.17.1C33.41 11.33 29.2 9 25 6.55c-4.23 2.34-8.38 4.83-12.59 7.23a30.12 30.12 0 0 1-5.62-3.35C12.47 7.11 18.18 3.89 23.83.57z"></path><path d="M12.44 13.78c4.21-2.4 8.36-4.89 12.56-7.23 4.2 2.45 8.41 4.78 12.54 7.26-4 2.63-8.34 4.75-12.32 7.42-.12 4.79 0 9.59 0 14.38l-.21.25-.37-.36c.17-4.77.27-9.56 0-14.33-2.56-2-5.59-3.33-8.35-5A38.77 38.77 0 0 0 12.4 14z"></path><path d="M37.54 13.81l.17-.1c-.07 4.72 0 9.44 0 14.16.11.63-.59.85-1 1.15-3.85 2.17-7.65 4.43-11.51 6.59 0-4.79-.09-9.59 0-14.38 4-2.67 8.33-4.79 12.34-7.42z"></path></svg></svg> </g></g> <g transform="translate(-15.370002746582031,44.987443923950195)"><rect fill="black" fill-opacity="1" x="-3.5" y="-3.5" width="187.74000549316406" height="44.22999954223633"></rect><rect fill="black" fill-opacity="1" x="-3.5" y="-3.5"></rect></g><g transform="translate(-15.370002746582031,44.987443923950195)" fill="black"><g data-gra="path-name" fill-rule="" class="tp-name"><g transform="scale(1)"><g><path d="M20.67-36.37L32.35-35.6 23.06-0.25 10.46 0.46-0.97-35.25 11.07-36.37 15.95-15.54 20.67-36.37ZM52.67-36.37L62.57-2.18 49.98-0.56 48.45-6.3 42.66-6.3 41.39-0.56 28.44-1.83 38.55-35.65 52.67-36.37ZM43.73-14.07L47.54-14.07 45.61-22.91 43.73-14.07ZM79.13-35.25L91.32-34.38 79.38-14.88 79.74-0.51 66.69-0.51 66.99-14.78 57.7-33.62 70.65-35.25 74.71-24.28 79.13-35.25ZM92.13-36.62L115.55-36.62Q115.4-34.23 115.27-31.9 115.14-29.56 114.94-27.17L114.94-27.17 104.17-26.61 104.17-23.41 113.52-23.41 113.01-15.54 104.12-15.29 104.17-0.25 91.32 0 92.13-36.62ZM147.72-19.45L147.72-19.45Q147.72-17.14 147.19-15 146.66-12.85 145.65-10.97 144.65-9.09 143.22-7.53 141.78-5.97 139.99-4.85 138.2-3.73 136.09-3.11 133.98-2.49 131.62-2.49L131.62-2.49Q129.34-2.49 127.27-3.07 125.2-3.66 123.39-4.71 121.59-5.76 120.13-7.25 118.67-8.74 117.64-10.55 116.61-12.37 116.04-14.45 115.47-16.53 115.47-18.79L115.47-18.79Q115.47-21 116-23.12 116.54-25.24 117.54-27.12 118.54-29 119.97-30.58 121.39-32.15 123.15-33.29 124.92-34.44 126.98-35.07 129.03-35.71 131.32-35.71L131.32-35.71Q135-35.71 138.03-34.56 141.07-33.42 143.22-31.3 145.36-29.18 146.54-26.17 147.72-23.16 147.72-19.45ZM136.45-18.79L136.45-18.79Q136.45-19.88 136.13-20.91 135.81-21.94 135.2-22.74 134.59-23.54 133.69-24.04 132.79-24.53 131.62-24.53L131.62-24.53Q130.43-24.53 129.49-24.1 128.55-23.67 127.88-22.92 127.2-22.17 126.85-21.17 126.49-20.16 126.49-19.05L126.49-19.05Q126.49-17.98 126.8-16.91 127.1-15.85 127.71-14.98 128.32-14.12 129.22-13.59 130.12-13.05 131.32-13.05L131.32-13.05Q132.51-13.05 133.46-13.52 134.42-13.99 135.08-14.79 135.74-15.59 136.09-16.63 136.45-17.67 136.45-18.79ZM179.77-35.76L179.77-35.76Q178.63-26.82 177.82-17.97 177-9.12 176.27-0.15L176.27-0.15 165.85 0.61 166.31-3.3Q165.8-2.72 165.13-2.29 164.46-1.85 163.7-1.59 162.93-1.32 162.12-1.21 161.31-1.09 160.57-1.12L160.57-1.12Q158.85-1.14 157.32-1.79 155.8-2.44 154.53-3.52 153.26-4.6 152.24-6.03 151.23-7.47 150.53-9.05 149.83-10.64 149.46-12.29 149.09-13.94 149.09-15.49L149.09-15.49Q149.09-17.78 149.18-20.23 149.27-22.68 149.5-25.14 149.73-27.6 150.1-30.02 150.47-32.43 151.02-34.64L151.02-34.64Q154.12-34.49 157.25-34.36 160.37-34.23 163.47-34.28L163.47-34.28Q162.88-32.07 162.31-29.85 161.74-27.63 161.28-25.38 160.83-23.13 160.55-20.87 160.27-18.61 160.27-16.3L160.27-16.3Q160.27-15.77 160.32-14.78 160.37-13.79 160.59-12.82 160.8-11.86 161.25-11.14 161.69-10.41 162.5-10.41L162.5-10.41Q163.47-10.41 164.23-11.24 164.99-12.06 165.58-13.46 166.16-14.86 166.58-16.68 167-18.51 167.29-20.51 167.58-22.5 167.76-24.53 167.94-26.56 168.03-28.35 168.12-30.14 168.15-31.57 168.19-32.99 168.19-33.78L168.19-33.78Q168.19-34.28 168.17-34.77 168.14-35.25 168.09-35.76L168.09-35.76Q169.74-35.71 171.37-35.68 172.99-35.65 174.64-35.65L174.64-35.65Q175.91-35.65 177.19-35.67 178.48-35.68 179.77-35.76Z" transform="translate(0.9700000286102295, 36.619998931884766)"></path></g>       </g></g> </g></mask><defs v-gra="od"></defs></svg>