<svg data-v-0dd9719b="" version="1.0" xmlns="http://www.w3.org/2000/svg" xmlns:xlink="http://www.w3.org/1999/xlink" width="680" height="500" viewBox="0 0 340.000000 250.000000" preserveAspectRatio="xMidYMid meet" color-interpolation-filters="sRGB" style="">   <g data-v-0dd9719b="" class="iconmbgsvg" transform="translate(95,-67)"><g fill="#333" hollow-target="textRect"><g transform="translate(0,97.15573120117188)" mask="url(#0aa6359a-92e1-4c2f-ae7c-30f2c76b7061)"><g><rect fill="#333" fill-opacity="0" stroke-width="2" x="0" y="0" width="150" height="189.68853143138966" class="image-rect"></rect> <svg x="0" y="0" width="150" height="189.68853143138966" filtersec="colorsb5145314554" class="image-svg-svg primary" style="overflow: visible;"><svg xmlns="http://www.w3.org/2000/svg" viewBox="0 0 79.07994079589844 100.00402069091797"><g fill-rule="evenodd"><path d="M5 29.85L56 9.69C61.37 7.34 68.32 3.79 71.45 0c0 0 20.94 20-6.56 30.85L20.64 48.36z" fill="#2ddaff"></path><path d="M0 64.55l51-20.16c5.38-2.34 12.33-5.89 15.46-9.68 0 0 20.94 20-6.56 30.84L15.59 83.07z" fill="#1a85f8"></path><path d="M0 64.55l27-10.68 33.17 39.36-13.5 5.35c-7.43 2.94-17 1.18-21.31-3.92z" fill="#2ddaff" opacity=".8"></path></g></svg></svg> <!----></g></g> <g transform="translate(85,0)"><g data-gra="path-name" fill-rule="" class="tp-name"><g transform="scale(1)"><g><path d="" transform="translate(0, 0)"></path></g> <!----> <!----> <!----> <!----> <!----> <!----> <!----></g></g> <!----></g></g></g><defs v-gra="od"></defs><mask id="0aa6359a-92e1-4c2f-ae7c-30f2c76b7061"><g fill="white"><g><rect fill-opacity="1" stroke-width="2" x="0" y="0" width="150" height="189.68853143138966" class="image-rect"></rect> <svg x="0" y="0" width="150" height="189.68853143138966" filtersec="colorsb5145314554" class="image-svg-svg primary" style="overflow: visible;"><svg xmlns="http://www.w3.org/2000/svg" viewBox="0 0 79.07994079589844 100.00402069091797"><g fill-rule="evenodd"><path d="M5 29.85L56 9.69C61.37 7.34 68.32 3.79 71.45 0c0 0 20.94 20-6.56 30.85L20.64 48.36z"></path><path d="M0 64.55l51-20.16c5.38-2.34 12.33-5.89 15.46-9.68 0 0 20.94 20-6.56 30.84L15.59 83.07z"></path><path d="M0 64.55l27-10.68 33.17 39.36-13.5 5.35c-7.43 2.94-17 1.18-21.31-3.92z" opacity=".8"></path></g></svg></svg> </g></g> <g transform="translate(85,-97.15573120117188)"><rect fill="black" fill-opacity="1" x="-3.5" y="-3.5" width="7" height="7"></rect><rect fill="black" fill-opacity="1" x="-3.5" y="-3.5"></rect></g><g transform="translate(85,-97.15573120117188)" fill="black"><g data-gra="path-name" fill-rule="" class="tp-name"><g transform="scale(1)"><g><path d="" transform="translate(0, 0)"></path></g>       </g></g> </g></mask></svg>